<?xml version="1.0" encoding="UTF-8" standalone="no"?>
<svg
   version="1.2"
   width="22.54mm"
   height="22.04mm"
   viewBox="7580 12017 2254 2204"
   preserveAspectRatio="xMidYMid"
   fill-rule="evenodd"
   stroke-width="28.222"
   stroke-linejoin="round"
   xml:space="preserve"
   id="svg22"
   sodipodi:docname="NH-icon.svg"
   inkscape:version="1.3 (0e150ed6c4, 2023-07-21)"
   xmlns:inkscape="http://www.inkscape.org/namespaces/inkscape"
   xmlns:sodipodi="http://sodipodi.sourceforge.net/DTD/sodipodi-0.dtd"
   xmlns="http://www.w3.org/2000/svg"
   xmlns:svg="http://www.w3.org/2000/svg"><sodipodi:namedview
   id="namedview22"
   pagecolor="#ffffff"
   bordercolor="#000000"
   borderopacity="0.25"
   inkscape:showpageshadow="2"
   inkscape:pageopacity="0.0"
   inkscape:pagecheckerboard="0"
   inkscape:deskcolor="#d1d1d1"
   inkscape:document-units="mm"
   inkscape:zoom="8.9915113"
   inkscape:cx="42.540124"
   inkscape:cy="41.650395"
   inkscape:window-width="1680"
   inkscape:window-height="987"
   inkscape:window-x="-8"
   inkscape:window-y="-8"
   inkscape:window-maximized="1"
   inkscape:current-layer="g22" />&#10; <defs
   class="EmbeddedBulletChars"
   id="defs10">&#10;  <g
   id="bullet-char-template-57356"
   transform="scale(0.00048828125,-0.00048828125)">&#10;   <path
   d="M 580,1141 L 1163,571 580,0 -4,571 580,1141 Z"
   id="path1" />&#10;  </g>&#10;  <g
   id="bullet-char-template-57354"
   transform="scale(0.00048828125,-0.00048828125)">&#10;   <path
   d="M 8,1128 L 1137,1128 1137,0 8,0 8,1128 Z"
   id="path2" />&#10;  </g>&#10;  <g
   id="bullet-char-template-10146"
   transform="scale(0.00048828125,-0.00048828125)">&#10;   <path
   d="M 174,0 L 602,739 174,1481 1456,739 174,0 Z M 1358,739 L 309,1346 659,739 1358,739 Z"
   id="path3" />&#10;  </g>&#10;  <g
   id="bullet-char-template-10132"
   transform="scale(0.00048828125,-0.00048828125)">&#10;   <path
   d="M 2015,739 L 1276,0 717,0 1260,543 174,543 174,936 1260,936 717,1481 1274,1481 2015,739 Z"
   id="path4" />&#10;  </g>&#10;  <g
   id="bullet-char-template-10007"
   transform="scale(0.00048828125,-0.00048828125)">&#10;   <path
   d="M 0,-2 C -7,14 -16,27 -25,37 L 356,567 C 262,823 215,952 215,954 215,979 228,992 255,992 264,992 276,990 289,987 310,991 331,999 354,1012 L 381,999 492,748 772,1049 836,1024 860,1049 C 881,1039 901,1025 922,1006 886,937 835,863 770,784 769,783 710,716 594,584 L 774,223 C 774,196 753,168 711,139 L 727,119 C 717,90 699,76 672,76 641,76 570,178 457,381 L 164,-76 C 142,-110 111,-127 72,-127 30,-127 9,-110 8,-76 1,-67 -2,-52 -2,-32 -2,-23 -1,-13 0,-2 Z"
   id="path5" />&#10;  </g>&#10;  <g
   id="bullet-char-template-10004"
   transform="scale(0.00048828125,-0.00048828125)">&#10;   <path
   d="M 285,-33 C 182,-33 111,30 74,156 52,228 41,333 41,471 41,549 55,616 82,672 116,743 169,778 240,778 293,778 328,747 346,684 L 369,508 C 377,444 397,411 428,410 L 1163,1116 C 1174,1127 1196,1133 1229,1133 1271,1133 1292,1118 1292,1087 L 1292,965 C 1292,929 1282,901 1262,881 L 442,47 C 390,-6 338,-33 285,-33 Z"
   id="path6" />&#10;  </g>&#10;  <g
   id="bullet-char-template-9679"
   transform="scale(0.00048828125,-0.00048828125)">&#10;   <path
   d="M 813,0 C 632,0 489,54 383,161 276,268 223,411 223,592 223,773 276,916 383,1023 489,1130 632,1184 813,1184 992,1184 1136,1130 1245,1023 1353,916 1407,772 1407,592 1407,412 1353,268 1245,161 1136,54 992,0 813,0 Z"
   id="path7" />&#10;  </g>&#10;  <g
   id="bullet-char-template-8226"
   transform="scale(0.00048828125,-0.00048828125)">&#10;   <path
   d="M 346,457 C 273,457 209,483 155,535 101,586 74,649 74,723 74,796 101,859 155,911 209,963 273,989 346,989 419,989 480,963 531,910 582,859 608,796 608,723 608,648 583,586 532,535 482,483 420,457 346,457 Z"
   id="path8" />&#10;  </g>&#10;  <g
   id="bullet-char-template-8211"
   transform="scale(0.00048828125,-0.00048828125)">&#10;   <path
   d="M -4,459 L 1135,459 1135,606 -4,606 -4,459 Z"
   id="path9" />&#10;  </g>&#10;  <g
   id="bullet-char-template-61548"
   transform="scale(0.00048828125,-0.00048828125)">&#10;   <path
   d="M 173,740 C 173,903 231,1043 346,1159 462,1274 601,1332 765,1332 928,1332 1067,1274 1183,1159 1299,1043 1357,903 1357,740 1357,577 1299,437 1183,322 1067,206 928,148 765,148 601,148 462,206 346,322 231,437 173,577 173,740 Z"
   id="path10" />&#10;  </g>&#10; </defs>&#10; <g
   class="Page"
   id="g22"
   style="display:inline">&#10;  <g
   class="Graphic"
   id="g21"
   inkscape:export-filename="g21.png"
   inkscape:export-xdpi="96"
   inkscape:export-ydpi="96"
   style="display:inline;stroke-width:28.19999961;stroke-dasharray:none">&#10;   <g
   id="id3"
   style="stroke-width:28.19999961;stroke-dasharray:none">&#10;    <rect
   class="BoundingBox"
   stroke="none"
   fill="none"
   x="7580"
   y="12017"
   width="2254"
   height="2204"
   id="rect10"
   style="stroke-width:28.19999961;stroke-dasharray:none" />&#10;    <defs
   id="defs11">&#10;     <clipPath
   id="clip_path_1"
   clipPathUnits="userSpaceOnUse">&#10;      <path
   d="m 7580,12017 h 2253 v 2203 H 7580 Z"
   id="path11" />&#10;     </clipPath>&#10;    </defs>&#10;    <g
   clip-path="url(#clip_path_1)"
   id="g11"
   style="stroke-width:28.19999961;stroke-dasharray:none" />&#10;    <defs
   id="defs12">&#10;     <clipPath
   id="clip_path_2"
   clipPathUnits="userSpaceOnUse">&#10;      <path
   d="m 7580,12017 h 2253 v 2203 H 7580 Z"
   id="path12" />&#10;     </clipPath>&#10;    </defs>&#10;    <g
   clip-path="url(#clip_path_2)"
   id="g19"
   style="stroke-width:28.19999961;stroke-dasharray:none">&#10;     <path
   fill="#011e41"
   stroke="none"
   d="m 9134,12073 -330,-56 29,185 z"
   id="path13"
   style="stroke-width:28.19999961;stroke-dasharray:none" />&#10;     <path
   fill="#0082ca"
   stroke="none"
   d="m 9261,12358 -169,82 -605,-87 647,-280 z"
   id="path14"
   style="fill:#ffffff;fill-opacity:1;stroke-width:28.19999961;stroke-dasharray:none" />&#10;     <path
   fill="#011e41"
   stroke="none"
   d="m 8487,12353 824,122 -586,301 -281,-16 z"
   id="path15"
   style="stroke-width:28.19999961;stroke-dasharray:none" />&#10;     <path
   fill="#0082ca"
   stroke="none"
   d="m 9467,12821 -264,153 -777,-45 885,-454 z"
   id="path16"
   style="stroke-width:28.19999961;stroke-dasharray:none;fill:#ffffff;fill-opacity:1" />&#10;     <path
   fill="#011e41"
   stroke="none"
   d="m 8426,12929 1118,67 -719,446 -455,22 z"
   id="path17"
   style="stroke-width:28.19999961;stroke-dasharray:none" />&#10;     <path
   fill="#0082ca"
   stroke="none"
   d="m 9726,13405 -182,-409 -1964,1224 1184,-124 z"
   id="path18"
   style="display:inline;stroke-width:28.19999961;stroke-dasharray:none;fill:#ffffff;fill-opacity:1" />&#10;     <path
   fill="#19233e"
   stroke="none"
   d="m 10300,12398 c -32,0 -63,5 -95,21 -27,13 -50,32 -66,56 v 454 h -98 v -603 h 98 v 48 c 21,-18 47,-34 74,-45 32,-13 66,-18 100,-18 69,-3 135,21 183,68 45,45 66,114 66,207 v 341 h -98 v -344 c 0,-66 -13,-114 -42,-143 -32,-32 -77,-47 -122,-42 z m 605,545 c -31,0 -63,-3 -92,-14 -27,-8 -53,-21 -74,-37 -21,-15 -37,-37 -48,-58 -13,-26 -18,-55 -18,-84 -3,-59 24,-112 69,-146 44,-37 111,-53 195,-53 h 151 v -42 c 2,-34 -11,-66 -37,-87 -37,-19 -77,-27 -119,-24 -35,0 -69,5 -103,13 -35,8 -66,19 -95,34 l -11,-87 c 32,-16 63,-26 98,-34 37,-8 74,-13 111,-13 37,0 71,2 108,10 29,5 56,19 80,37 21,19 39,42 47,69 11,34 16,69 16,103 v 394 h -98 v -47 c -24,21 -50,37 -79,44 -32,16 -66,22 -101,22 z m 8,-88 c 35,0 69,-5 103,-18 30,-11 53,-32 72,-56 v -145 h -148 c -45,-3 -90,8 -127,32 -27,18 -42,50 -40,84 -2,32 13,64 40,82 29,13 66,24 100,21 z m 352,-529 h 108 v -182 h 98 v 180 h 183 v 84 h -183 v 289 c 0,26 3,55 5,82 3,18 11,34 22,47 7,11 21,19 34,24 16,5 34,5 50,5 19,0 40,-2 58,-8 l 11,88 c -13,2 -27,5 -42,5 -16,0 -27,3 -37,3 -53,5 -109,-14 -148,-51 -35,-34 -51,-84 -51,-156 v -328 h -108 z m 476,-185 c 0,-34 26,-61 61,-61 34,0 60,27 60,61 0,35 -26,61 -60,61 -35,0 -61,-29 -61,-61 z m 13,185 h 98 v 603 h -98 z m 217,302 c 0,-42 5,-85 21,-127 13,-37 32,-71 58,-101 26,-29 56,-50 93,-66 76,-31 163,-31 240,0 34,16 66,37 90,66 26,30 45,64 58,101 27,82 27,169 0,251 -13,37 -32,72 -58,101 -26,29 -56,53 -93,66 -76,32 -163,32 -240,0 -34,-16 -66,-37 -93,-66 -26,-29 -45,-64 -58,-101 -10,-39 -18,-82 -18,-124 z m 100,0 c -2,61 13,119 50,167 72,76 193,82 270,10 3,-3 8,-8 11,-10 34,-48 52,-109 50,-167 2,-61 -13,-119 -50,-167 -72,-76 -193,-82 -270,-10 -3,2 -8,8 -11,10 -34,45 -52,106 -50,167 z m 862,-230 c -32,0 -64,5 -93,21 -26,13 -50,32 -66,56 v 454 h -97 v -603 h 97 v 48 c 21,-18 48,-34 74,-45 32,-13 66,-18 101,-18 69,-3 135,21 182,68 45,45 66,114 66,207 v 341 h -98 v -344 c 0,-66 -13,-114 -42,-143 -34,-29 -79,-45 -124,-42 z m 597,545 c -31,0 -63,-3 -92,-14 -27,-8 -53,-18 -74,-37 -21,-15 -37,-37 -50,-58 -14,-26 -19,-55 -19,-84 -3,-59 24,-112 69,-146 45,-37 111,-53 195,-53 h 151 v -42 c 3,-34 -10,-66 -37,-87 -37,-19 -77,-27 -119,-24 -34,0 -69,5 -103,13 -34,8 -66,19 -95,34 l -11,-87 c 32,-16 64,-26 98,-34 37,-8 74,-13 111,-13 37,0 71,2 106,10 29,5 55,19 79,37 21,19 40,42 48,69 10,34 16,69 16,103 v 394 h -90 v -47 c -24,21 -51,37 -80,44 -34,16 -68,22 -103,22 z m 11,-88 c 34,0 69,-5 103,-18 29,-11 53,-32 71,-56 v -148 h -145 c -45,-2 -90,8 -127,32 -26,18 -42,50 -40,85 -2,31 14,63 40,82 27,15 61,26 98,23 z m 420,-777 h 98 v 849 h -98 z m -3637,1335 c -42,0 -79,16 -109,45 v 447 h -174 v -849 h 174 v 286 c 22,-16 43,-29 69,-37 29,-11 58,-16 87,-16 69,-3 135,21 180,71 42,48 64,119 64,212 v 333 h -175 v -330 c 3,-43 -8,-88 -29,-125 -18,-23 -53,-39 -87,-37 z m 412,-269 c -2,-24 6,-48 24,-66 21,-16 48,-24 77,-22 26,-2 55,6 76,22 29,39 29,92 0,129 -21,16 -50,24 -76,21 -27,3 -56,-5 -77,-21 -16,-16 -26,-40 -24,-63 z m 13,158 h 175 v 603 h -175 z m 278,297 c 0,-43 5,-88 21,-127 13,-37 32,-69 58,-98 24,-27 53,-48 85,-61 32,-13 69,-21 103,-21 29,0 58,5 85,16 23,8 45,21 63,39 v -39 h 174 v 544 c 0,45 -5,90 -18,133 -11,34 -29,66 -56,90 -29,26 -60,42 -97,52 -48,14 -95,19 -146,16 -37,0 -76,-2 -113,-10 -35,-6 -69,-19 -98,-35 l 10,-137 c 27,18 59,34 90,45 32,10 66,16 101,16 39,2 79,-11 111,-32 29,-27 45,-66 42,-106 v -26 c -18,18 -40,31 -63,39 -27,11 -56,16 -85,16 -37,0 -71,-8 -103,-21 -32,-13 -61,-34 -85,-61 -26,-29 -45,-61 -58,-98 -16,-45 -24,-90 -21,-134 z m 174,0 c -2,50 11,97 37,137 22,29 56,45 93,45 21,0 42,-3 61,-11 18,-8 34,-18 50,-34 v -275 c -13,-13 -32,-26 -50,-34 -19,-8 -40,-14 -61,-14 -37,0 -71,16 -93,45 -23,32 -37,77 -37,141 z m 833,-186 c -21,0 -42,6 -63,14 -19,8 -35,18 -48,31 v 447 h -174 v -846 h 174 v 286 c 21,-16 42,-29 69,-37 29,-11 58,-16 87,-16 69,-3 135,21 180,71 42,48 63,119 63,212 v 333 h -169 v -333 c 0,-58 -10,-98 -29,-125 -21,-23 -55,-39 -90,-37 z m 896,-111 109,400 111,-400 h 177 l -196,603 h -177 l -103,-388 -103,388 h -177 l -196,-603 h 177 l 111,400 109,-400 z m 645,617 c -29,0 -58,-6 -87,-14 -26,-8 -50,-21 -71,-37 -21,-16 -37,-37 -48,-61 -13,-26 -18,-52 -18,-82 -3,-58 23,-113 71,-150 48,-37 116,-56 206,-56 h 111 v -26 c 3,-24 -8,-48 -26,-61 -27,-13 -58,-19 -90,-19 -37,0 -74,6 -109,14 -34,8 -66,21 -97,37 l -16,-125 c 34,-16 71,-29 108,-37 42,-10 87,-16 132,-16 93,0 162,19 207,53 42,35 66,96 66,178 v 386 h -175 v -40 c -24,18 -47,32 -74,42 -29,14 -58,16 -90,14 z m 43,-120 c 23,0 47,-5 68,-13 21,-8 40,-21 56,-37 v -111 h -106 c -29,-2 -61,5 -85,24 -15,16 -26,40 -23,61 -3,21 8,45 23,58 19,13 43,21 67,18 z m 584,106 -241,-603 h 183 l 142,400 143,-400 h 182 l -309,828 h -182 z m 671,14 c -39,0 -79,-3 -119,-11 -37,-8 -71,-19 -106,-37 l 8,-140 c 29,21 61,34 96,47 34,11 68,16 105,16 64,0 95,-21 95,-61 0,-8 -2,-15 -5,-23 -5,-8 -10,-16 -18,-22 -11,-8 -24,-13 -37,-18 -16,-5 -35,-13 -58,-21 -53,-11 -98,-37 -138,-74 -29,-29 -45,-69 -42,-111 -3,-53 21,-104 63,-133 43,-31 103,-45 183,-45 68,0 137,14 201,40 l -14,127 c -26,-13 -53,-24 -82,-32 -29,-8 -58,-10 -90,-10 -23,-3 -47,2 -68,13 -13,8 -19,21 -19,34 0,19 8,35 24,45 29,19 58,32 90,37 32,11 61,21 87,37 21,11 40,27 58,43 14,13 24,31 32,50 24,71 3,148 -53,198 -47,37 -111,53 -193,51 z"
   id="path19"
   style="display:none;stroke-width:28.19999961;stroke-dasharray:none" />&#10;    </g>&#10;    <g
   clip-path="url(#clip_path_1)"
   id="g20"
   style="stroke-width:28.19999961;stroke-dasharray:none" />&#10;   </g>&#10;  </g>&#10; </g>&#10;</svg>
